<?xml version="1.0" encoding="utf-8"?>
<!-- Generator: Adobe Illustrator 16.0.0, SVG Export Plug-In . SVG Version: 6.00 Build 0)  -->
<!DOCTYPE svg PUBLIC "-//W3C//DTD SVG 1.1//EN" "http://www.w3.org/Graphics/SVG/1.1/DTD/svg11.dtd">
<svg version="1.1" id="Layer_1" xmlns="http://www.w3.org/2000/svg" xmlns:xlink="http://www.w3.org/1999/xlink" x="0px" y="0px"
	 width="1500px" height="1000px" viewBox="0 0 1500 1000" enable-background="new 0 0 1500 1000" xml:space="preserve">
<g>
	<path fill-rule="evenodd" clip-rule="evenodd" fill="#FFFFFF" d="M222.24,327.399c30.739,1.735,58.751,11.289,83.709,29.471
		c0.721-0.814,0.439-1.566,0.445-2.235c0.033-4.167,0.138-8.339-0.016-12.501c-0.152-4.099,2.946-7.865,7.836-7.818
		c10.781,0.104,21.564,0.133,32.344-0.012c5.219-0.07,8.224,3.605,8.203,8.336c-0.088,19.75-0.037,39.501-0.037,59.252
		c0,15.402,0,30.805,0,46.207c0,0.725,0.035,1.452-0.013,2.174c-0.288,4.406-3.136,7.148-7.581,7.176
		c-7.157,0.043-14.315,0.012-21.473,0.013c-2.627,0-5.255,0.033-7.882-0.009c-3.936-0.062-6.504-2.091-7.393-5.888
		c-6.596-28.18-24.016-47.757-48.991-61.123c-15.31-8.193-31.795-12.003-49.176-11.203c-16.909,0.777-32.809,5.504-47.583,13.685
		c-30.989,17.158-50.182,43.154-57.137,77.908c-4.823,24.099-3.737,48.025,4.688,71.207c12.314,33.882,36.23,56.296,69.885,68.526
		c11.664,4.239,23.767,6.375,36.22,6.05c24.154-0.63,45.431-8.933,63.933-24.36c11.504-9.593,20.552-21.125,26.664-34.869
		c0.367-0.825,0.669-1.679,0.973-2.529c0.052-0.146-0.041-0.342-0.106-0.776c-0.914,0-1.879,0-2.844,0
		c-22.378,0-44.756,0.001-67.135-0.006c-0.993-0.001-2.013,0.043-2.975-0.155c-3.502-0.721-5.731-3.622-5.761-7.534
		c-0.043-5.889-0.011-11.777-0.012-17.667c0-4.802,0.169-9.61-0.045-14.403c-0.235-5.286,3.457-8.614,8.52-8.596
		c31.257,0.118,62.514,0.06,93.771,0.06c17.939,0,35.878,0,53.817,0c0.544,0,1.087-0.005,1.631,0.001
		c5.01,0.059,7.956,2.951,7.969,7.938c0.027,10.782,0.009,21.563,0.009,32.345c0,0.182,0.004,0.362-0.001,0.544
		c-0.133,4.481-3.085,7.439-7.6,7.462c-8.516,0.041-17.033-0.004-25.549,0.02c-3.699,0.01-3.22-0.458-3.221,3.108
		c-0.012,31.529-0.007,63.058-0.007,94.587c0,0.725,0.016,1.45-0.004,2.174c-0.129,4.559-2.959,7.408-7.57,7.441
		c-7.52,0.055-15.04,0.016-22.56,0.016c-3.262,0-6.533-0.162-9.783,0.035c-5.769,0.352-8.667-3.95-8.476-8.581
		c0.228-5.518,0.053-11.051,0.053-16.578c0-0.885,0-1.77,0-2.669c-1.152-0.175-1.604,0.638-2.192,1.104
		c-9.959,7.904-20.495,14.912-31.973,20.428c-15.094,7.253-31.013,11.403-47.712,12.672c-37.771,2.869-72.71-5.684-104.256-26.681
		c-37.546-24.992-61.318-59.82-72.097-103.564c-2.345-9.518-3.492-19.226-4.335-28.972c-0.117-1.349-0.754-2.605-0.593-3.984
		c0-4.53,0-9.061,0-13.591c-0.194-1.294,0.49-2.443,0.59-3.706c0.308-3.878,0.655-7.759,1.163-11.615
		c2.644-20.094,8.37-39.269,17.875-57.187c21.541-40.61,53.925-68.633,97.639-83.263c14.674-4.91,29.84-7.227,45.277-7.86
		C214.991,327.399,218.615,327.399,222.24,327.399z"/>
	<path fill-rule="evenodd" clip-rule="evenodd" fill="#FFFFFF" d="M1329.603,672.601c-14.991-1.049-29.67-3.653-43.409-9.955
		c-38.084-17.469-61.904-46.713-69.378-87.952c-11.064-61.054,26.654-117.695,83.604-134.18c13.454-3.894,27.198-5.267,41.12-4.263
		c22.967,1.655,43.697,9.508,62.186,23.249c0.363,0.27,0.715,0.557,1.052,0.856c0.13,0.116,0.206,0.292,0.404,0.587
		c-3.475,4.328-6.977,8.698-10.486,13.062c-20.265,25.202-40.532,50.401-60.799,75.602c-0.17,0.212-0.381,0.404-0.501,0.642
		c-0.324,0.646-1.495,1.111-0.651,2.025c0.742,0.806,1.507,0.053,2.202-0.27c6.892-3.197,13.776-6.412,20.663-9.621
		c2.812-1.311,2.813-1.31,3.883,1.716c5.417,15.324-4.086,32.48-19.969,36.05c-18.092,4.066-34.812-9.667-34.338-28.203
		c0.354-13.823,11.421-25.521,25.251-26.779c3.391-0.309,6.693-0.027,9.933,0.938c1.097,0.327,1.807,0.336,2.445-0.822
		c6.121-11.097,12.292-22.166,18.444-33.244c0.038-0.067,0.022-0.164,0.032-0.247c-21.067-11.045-55.113-9.37-77.983,15.353
		c-22.405,24.221-23.903,61.384-3.438,87.558c20.436,26.136,57.056,33.52,86.073,17.454c28.644-15.858,44.383-52.647,28.637-87.583
		c0.415-0.798,1.269-0.968,1.979-1.301c13.595-6.366,27.198-12.713,40.801-19.062c0.409-0.191,0.819-0.381,1.232-0.566
		c0.69-0.312,1.211-0.196,1.52,0.565c0.203,0.503,0.474,0.978,0.697,1.472c5.227,11.558,8.72,23.632,9.86,36.255
		c6.055,67.019-39.528,116.541-92.813,127.848c-5.141,1.091-10.357,1.689-15.566,2.331c-0.797,0.099-1.645-0.021-2.358,0.487
		C1336.488,672.601,1333.045,672.601,1329.603,672.601z"/>
	<path fill-rule="evenodd" clip-rule="evenodd" fill="#FFFFFF" d="M978.498,466.34c0.329-0.805,0.168-1.7,0.176-2.563
		c0.025-3.079-0.085-6.164,0.051-9.238c0.22-4.976,2.994-7.58,7.988-7.594c9.783-0.027,19.568-0.009,29.352-0.009
		c11.868,0,23.738,0.14,35.603-0.062c5.561-0.095,8.406,4.089,8.315,8.214c-0.199,9.055-0.194,18.12-0.002,27.176
		c0.087,4.098-2.635,8.351-8.314,8.245c-7.606-0.142-15.219-0.043-22.829-0.029c-2.9,0.005-2.66-0.362-2.664,2.566
		c-0.008,7.7-0.003,15.4-0.003,23.102c0,32.704,0,65.408,0,98.113c0,0.634,0.073,1.278-0.014,1.899
		c-0.214,1.532,0.572,1.782,1.886,1.774c7.52-0.041,15.038-0.022,22.558-0.016c0.905,0,1.818-0.023,2.713,0.085
		c3.967,0.48,6.486,3.296,6.604,7.323c0.012,0.362,0.004,0.725,0.004,1.087c0,8.878,0.006,17.757-0.003,26.635
		c-0.006,5.638-2.689,8.356-8.286,8.359c-21.562,0.009-43.123,0.004-64.684,0.003c-0.091,0-0.182,0.001-0.272,0
		c-5.021-0.057-7.72-2.579-7.948-7.614c-0.128-2.803-0.039-5.615-0.046-8.423c-0.003-0.99-0.001-1.981-0.001-2.947
		c-1.047-0.333-1.428,0.452-1.922,0.862c-12.793,10.615-27.351,17.508-43.622,20.861c-8.687,1.791-17.453,1.95-26.233,1.272
		c-12.73-0.982-25.017-3.917-36.626-9.314c-24.216-11.261-40.991-29.603-51.069-54.186c-4.738-11.559-7.393-23.628-8.387-36.077
		c-1.422-17.791-0.028-35.293,5.621-52.297c8.947-26.932,25.615-47.373,51.241-60.102c11.886-5.903,24.536-9.057,37.726-10.35
		c27.08-2.654,50.664,5.662,71.61,22.47C977.419,465.888,977.723,466.388,978.498,466.34z M862.019,552.691
		c0.074,12.541,1.501,23.337,5.471,33.71c11.622,30.368,40.674,38.782,62.735,34.366c16.538-3.312,28.833-12.973,37.487-27.309
		c5.91-9.791,8.807-20.531,9.8-31.879c1.275-14.577-0.987-28.518-7.242-41.749c-5.065-10.713-12.327-19.589-22.548-25.807
		c-11.233-6.832-23.475-8.545-36.336-6.908c-18.004,2.29-31.332,11.491-40.035,27.337
		C864.562,526.812,862.098,540.236,862.019,552.691z"/>
	<path fill-rule="evenodd" clip-rule="evenodd" fill="#FFFFFF" d="M574.607,640.916c-0.873,0.23-1.333,0.827-1.882,1.279
		c-15.642,12.887-33.496,20.628-53.649,22.886c-13.167,1.475-26.228,0.832-39.04-2.771c-22.056-6.202-35.584-20.606-40.896-42.814
		c-2.057-8.601-2.64-17.344-2.371-26.161c0.027-0.904,0.042-1.811,0.042-2.717c0.002-32.255,0.001-64.51,0.001-96.765
		c0-0.453,0.008-0.906-0.001-1.358c-0.046-2.022-0.047-2.055-2.139-2.061c-6.251-0.017-12.51-0.178-18.753,0.052
		c-4.495,0.166-8.363-3.084-8.262-8.285c0.177-9.057,0.168-18.122-0.003-27.179c-0.081-4.24,2.968-8.172,8.12-8.141
		c21.471,0.131,42.945,0.146,64.417-0.01c5.332-0.038,8.399,3.736,8.39,8.435c-0.089,46.299-0.05,92.597-0.062,138.896
		c0,2.908,0.083,5.805,0.828,8.628c2.421,9.171,8.563,14.449,17.62,16.479c6.473,1.45,12.982,0.831,19.438-0.246
		c9.33-1.559,17.835-5.256,25.799-10.272c7.771-4.896,14.761-10.787,21.568-16.915c0.808-0.727,1.284-1.489,1.125-2.586
		c-0.013-0.088-0.001-0.181-0.001-0.271c0-32.164,0.002-64.328-0.006-96.493c-0.001-2.049-0.041-2.085-2.104-2.089
		c-7.792-0.016-15.583-0.006-23.376-0.008c-0.725,0-1.455,0.043-2.173-0.027c-3.641-0.355-6.454-3.17-6.485-6.833
		c-0.083-9.875-0.08-19.752-0.006-29.627c0.029-3.951,2.932-6.77,6.876-6.985c0.723-0.04,1.45-0.019,2.174-0.019
		c22.561,0,45.121,0,67.681,0c0.634,0,1.269-0.015,1.902,0.009c4.09,0.15,6.973,2.91,7.256,6.974c0.062,0.902,0.02,1.812,0.02,2.718
		c0.001,52.641-0.003,105.281,0.009,157.922c0.001,3.776-0.551,3.338,3.265,3.351c6.886,0.024,13.772-0.026,20.657,0.02
		c4.375,0.03,7.175,2.161,7.944,5.938c0.143,0.7,0.146,1.438,0.146,2.159c0.009,9.061-0.121,18.123,0.062,27.18
		c0.084,4.161-2.614,8.301-8.247,8.266c-22.469-0.143-44.94-0.138-67.409,0.005c-4.695,0.029-8.466-3.076-8.227-8.238
		c0.184-3.977,0.014-7.97-0.005-11.956C574.848,641.215,574.764,641.147,574.607,640.916z"/>
	<path fill-rule="evenodd" clip-rule="evenodd" fill="#FFFFFF" d="M1109.479,557.202c0-20.93,0-41.858,0-62.788
		c0-0.544-0.001-1.088,0-1.631c0.004-2.531,0.149-2.354-2.353-2.354c-7.883-0.002-15.77-0.159-23.646,0.06
		c-4.62,0.128-8.364-3.241-8.258-8.291c0.192-9.057,0.182-18.122,0-27.179c-0.088-4.368,3.078-8.265,8.112-8.136
		c7.877,0.2,15.764,0.057,23.646,0.05c2.479-0.002,2.496-0.017,2.496-2.505c0.005-19.117,0.003-38.234,0.003-57.352
		c0-0.726-0.022-1.451,0.007-2.175c0.169-4.101,2.907-6.939,6.993-7.249c0.541-0.041,1.087-0.019,1.63-0.019
		c11.507,0,23.014-0.006,34.521,0.009c0.99,0.002,2.002,0.03,2.968,0.227c3.171,0.646,5.381,3.265,5.561,6.495
		c0.04,0.723,0.012,1.449,0.012,2.174c0.001,19.117-0.003,38.234,0.004,57.352c0.002,3.389-0.334,3.038,3.058,3.042
		c8.698,0.011,17.396,0.003,26.095,0.005c0.725,0,1.451-0.022,2.173,0.023c3.81,0.238,6.707,2.991,6.746,6.822
		c0.102,9.875,0.1,19.751,0.014,29.626c-0.036,4.066-3.036,6.863-7.146,7.013c-0.995,0.036-1.993,0.007-2.99,0.007
		c-8.426,0-16.852,0.002-25.277-0.001c-2.949-0.001-2.674-0.113-2.674,2.604c-0.002,11.688-0.001,23.376-0.001,35.063
		c0,23.014-0.002,46.027,0.001,69.04c0.001,4.167,0.071,8.332,0.393,12.489c0.021,0.271,0.032,0.543,0.054,0.813
		c0.495,6.153,2.21,7.73,8.31,7.883c5.902,0.146,11.762-0.339,17.621-0.94c1.439-0.147,2.893-0.273,4.337-0.247
		c3.37,0.061,6,2.271,6.808,5.562c0.24,0.98,0.285,1.966,0.284,2.965c-0.006,9.061,0.009,18.12-0.008,27.181
		c-0.009,5.116-1.769,7.42-6.725,8.771c-11.976,3.265-24.187,4.438-36.57,4.105c-6.99-0.188-13.907-0.802-20.646-2.845
		c-10.15-3.077-17.037-9.576-20.743-19.497c-2.688-7.2-3.704-14.715-4.306-22.315c-0.588-7.415-0.505-14.844-0.502-22.271
		C1109.482,584.927,1109.479,571.064,1109.479,557.202z"/>
	<path fill-rule="evenodd" clip-rule="evenodd" fill="#FFFFFF" d="M764.776,535.059c0,26.629-0.003,53.258,0.006,79.887
		c0.001,3.12-0.447,2.967,2.854,2.969c7.155,0.004,14.311-0.006,21.466,0.01c0.992,0.002,1.999,0.025,2.973,0.19
		c3.459,0.586,5.901,3.245,5.926,6.73c0.067,9.871,0.067,19.745,0.002,29.617c-0.025,3.836-2.807,6.629-6.624,6.922
		c-0.811,0.062-1.629,0.027-2.444,0.027c-34.056,0.001-68.112-0.088-102.167,0.081c-6.312,0.031-9.511-3.085-9.32-9.369
		c0.264-8.688,0.093-17.389,0.054-26.083c-0.013-2.918,0.844-5.332,3.384-6.974c1.599-1.034,3.392-1.154,5.22-1.153
		c7.88,0.005,15.76,0.002,23.64,0.002c0.634,0,1.27-0.03,1.902,0.002c1.062,0.056,1.473-0.442,1.4-1.473
		c-0.045-0.631-0.006-1.268-0.006-1.901c0-40.215,0-80.43,0-120.645c0-0.181,0.001-0.362,0-0.543
		c-0.033-3.149,0.406-2.923-2.893-2.926c-7.699-0.006-15.403-0.172-23.095,0.063c-4.489,0.137-8.42-3.077-8.283-8.225
		c0.242-9.051,0.241-18.118-0.004-27.169c-0.124-4.568,3.17-8.261,8.267-8.229c23.186,0.147,46.374,0.138,69.56,0.006
		c4.893-0.028,8.252,3.421,8.233,8.296C764.721,481.802,764.776,508.431,764.776,535.059z"/>
	<path fill-rule="evenodd" clip-rule="evenodd" fill="#FFFFFF" d="M730.538,358.194c8.331,0,16.662-0.001,24.993,0
		c1.267,0.001,2.556-0.07,3.745,0.453c2.928,1.29,4.556,3.521,4.561,6.761c0.021,13.221,0.049,26.441-0.012,39.662
		c-0.02,4.247-2.567,6.906-6.771,7.395c-0.807,0.094-1.626,0.092-2.439,0.092c-16.3,0.005-32.599,0.004-48.898,0.003
		c-0.543,0-1.088,0.016-1.63-0.021c-4.794-0.316-7.502-3.027-7.524-7.843c-0.059-12.948,0.01-25.897-0.036-38.847
		c-0.016-4.589,3.421-7.783,7.934-7.701C713.149,358.306,721.845,358.194,730.538,358.194z"/>
</g>
</svg>
